# xmcd
#
# Track frame offsets: 
#        150
#        35918
#        51928
#        80334
#        104092
#        139513
#        166706
#
# Disc length: 2941 seconds
#
# Revision: 0
# Processed by: cddbd v1.5.2PL0 Copyright (c) Steve Scherf et al.
# Submitted via: ExactAudioCopy v1.1
#
DISCID=590b7b07
DTITLE=Kieran Hilbert and Friends - My First Blues
DYEAR=2018
DGENRE=Blues
TTITLE0=Road Dog
TTITLE1=Deep In My Soul
TTITLE2=Mr. Fred
TTITLE3=Frankie and Albert
TTITLE4=My First Blues
TTITLE5=Giant Step
TTITLE6=My Crossroads
EXTD=
EXTT0=
EXTT1=
EXTT2=
EXTT3=
EXTT4=
EXTT5=
EXTT6=
PLAYORDER=
